<svg data-v-decfdd8a="" version="1.0" xmlns="http://www.w3.org/2000/svg"
  xmlns:xlink="http://www.w3.org/1999/xlink" width="100%" height="100%"
  viewBox="0 0 340.000000 250.000000">
  <g data-v-decfdd8a="" fill="#18212a" class="iconbordersvg"
    transform="translate(23.955001831054688,93.99332427978516)">
    <g data-gra="graph-icon-name">
      <g>
        <rect data-gra="graph-name-bg" stroke-width="2" class="i-icon-bg" x="0" y="0"
          width="292.0899963378906" height="62.01335144042969" fill-opacity="0"
          stroke="rgb(24, 33, 42)"></rect> <!----> <!---->
      </g>
      <g transform="translate(0,0)">
        <g hollow-target="black" data-gra="graph-icon" transform="translate(0,0)"
          mask="url(#450920f6-1e93-43af-b611-92b74322c373)">
          <g>
            <rect data-gra="graph-name-bg" stroke-width="2" class="i-icon-bg" x="0" y="0" width="70"
              height="62.01335144042969" fill-opacity="1"></rect> <!----> <!---->
          </g>
          <g transform="translate(5,5)">
            <g class="iconsvg-imagesvg" opacity="1" transform="matrix(1,0,0,1,0,0)">
              <g><!---->
                <svg filter="url(#colors968214993)" x="0" y="0" width="60"
                  height="52.01335009319058" filtersec="colorsb5139379229"
                  class="image-svg-svg primary" style="overflow: visible;">
                  <svg xmlns="http://www.w3.org/2000/svg" viewBox="1.5 2 122.7 106.9">
                    <path
                      d="M24 106.9l23.8-41.1L63 39.6l15 26.2h20.5m-50.8 0h50.8m11.9 20.5H35.9m57.3-29.8L62.9 4 32.6 56.5 3.5 106.9l118.7-.1-29-50.3zM68 65.8l-23.8 41.1"
                      fill="none" stroke="#202121" stroke-width="4" stroke-miterlimit="10"></path>
                  </svg>
                </svg>
                <defs>
                  <filter id="colors968214993">
                    <feColorMatrix type="matrix"
                      values="0 0 0 0 0.10546875  0 0 0 0 0.2890625  0 0 0 0 0.609375  0 0 0 1 0"
                      class="icon-fecolormatrix"></feColorMatrix>
                  </filter>
                  <filter id="colorsf3706193968">
                    <feColorMatrix type="matrix"
                      values="0 0 0 0 0.99609375  0 0 0 0 0.99609375  0 0 0 0 0.99609375  0 0 0 1 0"
                      class="icon-fecolormatrix"></feColorMatrix>
                  </filter>
                  <filter id="colorsb5139379229">
                    <feColorMatrix type="matrix" values="0 0 0 0 0  0 0 0 0 0  0 0 0 0 0  0 0 0 1 0"
                      class="icon-fecolormatrix"></feColorMatrix>
                  </filter>
                </defs>
              </g>
            </g>
          </g>
        </g>
        <g data-gra="graph-name" transform="translate(70,0)">
          <g>
            <rect data-gra="graph-name-bg" stroke-width="2" class="i-icon-bg" x="0" y="0"
              width="222.08999633789062" height="62.01335144042969" fill-opacity="0"></rect> <!----> <!---->
          </g>
          <g transform="translate(5,17.676674842834473)">
            <g data-gra="path-name" fill-rule="" class="tp-name" opacity="1"
              transform="matrix(1,0,0,1,0,0)">
              <g transform="scale(1)">
                <g>
                  <path
                    d="M2.52 0L13.18 0C21.15 0 23.37-3.11 23.37-7.22 23.37-11 19.85-13.11 15.63-13.3L15.63-13.48C18.85-13.85 21.07-15.81 21.07-19.29 21.07-22.92 19.41-25.92 12.18-25.92L2.52-25.92 2.52-21.74 11.63-21.74C14.92-21.74 16.33-21 16.33-18.74 16.33-16.07 14.26-15.52 11.44-15.52L2.52-15.52 2.52-11 11.93-11C15.59-11 18.07-10.07 18.07-7.48 18.07-4.89 16.18-4.22 12-4.22L2.52-4.22ZM26.44 0L31.44 0 31.44-9.15 37.26-9.15 42.11 0 47.74 0 41.7-10C44.85-11.55 46.26-14.96 46.26-17.74 46.26-22.96 43-25.92 37.15-25.92L26.44-25.92 26.44-21.55 36.59-21.55C39.92-21.55 41.55-20.18 41.55-17.63 41.55-14.89 39.63-13.3 36.63-13.3L26.44-13.3ZM69.33-21.07L69.33-25.92 50.14-25.92 50.14-21.07ZM69.33-10.67L69.33-15.26 50.14-15.26 50.14-10.67ZM50.14 0L69.33 0 69.33-4.89 50.14-4.89ZM87.4-25.92L81.07-25.92 71.77 0 77.18 0 84.07-20.55 84.44-20.55 91.81 0 97.59 0ZM100.03-25.92L100.03-21.07 109.1-21.07C113.51-21.07 116.81-19.37 116.81-12.96 116.81-6.52 113.55-4.89 109.14-4.89L100.03-4.89 100.03 0 110.73 0C118.62 0 122.07-5.63 122.07-12.96 122.07-20.33 118.62-25.92 110.73-25.92ZM131.1-7.74L131.1-25.92 126.06-25.92 126.06-7.74ZM126.06 0L144.92 0 144.92-4.89 126.06-4.89ZM166.91-21.07L166.91-25.92 147.73-25.92 147.73-21.07ZM166.91-10.67L166.91-15.26 147.73-15.26 147.73-10.67ZM147.73 0L166.91 0 166.91-4.89 147.73-4.89ZM180.62-22.26C183.99-22.26 186.32-20.37 186.32-17.41L191.32-17.41C191.32-23.22 187.21-26.29 180.58-26.29ZM170.62-19.33C170.62-9.89 186.32-13.3 186.32-7.18 186.32-5.07 184.13-3.7 181.02-3.7 177.43-3.7 175.32-5.56 175.32-8.55L170.25-8.55C170.25-2.41 174.58 0.37 181.14 0.37 187.13 0.37 191.32-2.63 191.32-7.18 191.32-16.59 175.47-13.74 175.47-19.26ZM203.91-22.26C207.28-22.26 209.61-20.37 209.61-17.41L214.61-17.41C214.61-23.22 210.5-26.29 203.87-26.29ZM193.91-19.33C193.91-9.89 209.61-13.3 209.61-7.18 209.61-5.07 207.43-3.7 204.32-3.7 200.73-3.7 198.62-5.56 198.62-8.55L193.54-8.55C193.54-2.41 197.87 0.37 204.43 0.37 210.43 0.37 214.61-2.63 214.61-7.18 214.61-16.59 198.76-13.74 198.76-19.26Z"
                    transform="translate(-2.5199999809265137, 26.290000915527344)"></path>
                </g> <!----> <!----> <!----> <!----> <!----> <!----> <!---->
              </g>
            </g> <!---->
          </g>
        </g>
      </g>
    </g>
  </g>
  <mask id="450920f6-1e93-43af-b611-92b74322c373">
    <g fill="white">
      <rect data-gra="graph-name-bg" stroke-width="2" class="i-icon-bg" x="0" y="0" width="70"
        height="62.01335144042969" fill-opacity="1"></rect>
    </g>
    <g transform="translate(5,5)" fill="black">
      <g class="iconsvg-imagesvg" opacity="1" transform="matrix(1,0,0,1,0,0)">
        <g>
          <svg x="0" y="0" width="60" height="52.01335009319058" class="image-svg-svg primary"
            style="overflow: visible;" filter="url(#colorsb5139379229)">
            <svg xmlns="http://www.w3.org/2000/svg" viewBox="1.5 2 122.7 106.9">
              <path
                d="M24 106.9l23.8-41.1L63 39.6l15 26.2h20.5m-50.8 0h50.8m11.9 20.5H35.9m57.3-29.8L62.9 4 32.6 56.5 3.5 106.9l118.7-.1-29-50.3zM68 65.8l-23.8 41.1"
                fill="none" stroke="#202121" stroke-width="4" stroke-miterlimit="10"></path>
            </svg>
          </svg>
          <defs> </defs>
        </g>
      </g>
    </g>
  </mask>
  <defs v-gra="od"></defs>
</svg>